PathFileType	4	(X/Y/Z)	C:\Users\WrightLab\Desktop\Jo\P1.2Trial11.trc
DataRate	CameraRate	NumFrames	NumMarkers	Units	OrigDataRate	OrigDataStartFrame	OrigNumFrames
100.00	100.00	       18	19	mm	100.00	509	       814
Frame#	Time	Headset_Front			Headset_Back			Headset_Left			Headset_Right			Left_Shoulder			Right_Shoulder			Sternum			C7			Left Elbow			Right Elbow			Left Wrist			Right Wrist			Left ASIS			Right ASIS			S2			Left Knee			Right Knee			Left Ankle			Right Ankle			
		X1	Y1	Z1	X2	Y2	Z2	X3	Y3	Z3	X4	Y4	Z4	X5	Y5	Z5	X6	Y6	Z6	X7	Y7	Z7	X8	Y8	Z8	X9	Y9	Z9	X10	Y10	Z10	X11	Y11	Z11	X12	Y12	Z12	X13	Y13	Z13	X14	Y14	Z14	X15	Y15	Z15	X16	Y16	Z16	X17	Y17	Z17	X18	Y18	Z18	X19	Y19	Z19	

509	5.080	-266.33096	1283.11926	-63.94860	-347.60339	1520.06592	115.02660	-421.86200	1405.86072	10.40388	-195.90402	1370.77319	37.11320	-517.44818	1247.21045	58.30655	-149.78673	1263.85254	228.60658	-300.31970	1161.25012	66.71526	-389.94641	1325.96484	255.87904	-486.78238	1001.66309	-71.55920	-75.09280	1024.36047	305.03091	-322.41162	974.00995	-258.16547	-9.19206	783.36340	203.09203	-439.74030	858.60968	51.30182	-190.37653	842.27142	172.99728	-424.02277	935.22229	359.54861	-528.07617	437.15128	84.83558	-192.80859	435.36127	195.94243	-714.02667	168.78226	278.89185	-239.71710	101.00340	245.59413	
510	5.090	-266.34296	1281.90198	-64.54440	-346.13651	1519.71729	113.13747	-420.81757	1405.63928	8.19991	-194.54094	1369.59619	35.66494	-516.69830	1247.59961	57.75417	-147.73123	1264.34717	225.06047	-299.76410	1160.93042	65.55114	-388.45706	1325.96924	255.22173	-486.62109	1001.73541	-71.93570	-74.35568	1024.34375	303.92325	-322.41992	974.02179	-258.16846	-9.37768	782.40314	203.12819	-439.51135	858.67255	50.79417	-189.68097	841.66479	171.82774	-422.49487	936.00153	359.46481	-528.18726	437.21881	85.17705	-192.68431	435.06982	195.33057	-713.63483	168.68156	279.15347	-239.70850	101.21971	244.56862	
511	5.100	-265.72849	1281.26758	-65.74725	-344.83014	1519.43567	111.04712	-420.04935	1405.02441	8.10089	-193.41463	1369.09009	34.24250	-516.12659	1247.71240	58.01210	-146.89891	1263.89270	224.37411	-299.14716	1161.17322	64.08011	-387.06317	1326.36267	254.34306	-486.31741	1002.32440	-72.63235	-73.95148	1024.33606	302.84177	-322.53268	974.15460	-258.87729	-9.09784	781.38293	202.45279	-439.48059	858.66827	50.79364	-188.81227	841.60828	169.96298	-421.46338	936.47430	359.07797	-528.26996	437.33026	85.77324	-192.33232	435.01300	194.72522	-713.15564	168.77730	279.39041	-239.74783	101.17965	244.59726	
512	5.110	-265.21722	1279.97070	-66.93556	-343.58191	1519.36536	109.55015	-419.10352	1404.52441	6.04670	-193.47121	1367.71729	32.37044	-515.51740	1247.76758	57.54589	-146.08611	1263.46033	223.30779	-298.99146	1160.98291	63.52927	-385.79672	1326.36707	253.27031	-486.03308	1002.81183	-73.40781	-72.35693	1024.01917	301.19186	-322.60931	975.05261	-260.50577	-9.11888	780.75281	202.52818	-439.26337	858.73047	50.41455	-189.13980	841.09448	168.84592	-420.30081	936.52545	359.28055	-528.41418	437.49768	86.34960	-192.17186	434.76523	193.11632	-712.83514	168.60809	279.60284	-239.83868	101.04137	244.65475	
513	5.120	-264.93323	1279.09680	-67.78239	-342.14465	1519.14063	107.74909	-418.35754	1404.07922	5.46945	-192.19040	1367.11511	30.83825	-514.92090	1247.95166	56.70933	-144.95868	1262.87231	221.97812	-298.55652	1160.65308	62.03027	-384.79355	1326.51245	252.55159	-486.05518	1002.94965	-73.47792	-72.22337	1023.29590	299.45831	-322.83304	975.48352	-261.68536	-9.17125	779.82605	202.40210	-439.14172	858.75403	50.18509	-189.31746	840.50470	169.16301	-419.00269	937.09747	358.95181	-528.27313	437.59186	87.17316	-192.18233	434.70151	192.21361	-712.34167	168.73352	279.02872	-239.82744	100.97470	244.63176	
514	5.130	-264.47488	1278.39771	-69.21433	-341.10349	1518.55444	105.98328	-417.65970	1403.48254	4.03627	-191.59445	1366.38623	29.51668	-514.39130	1248.09595	56.36330	-144.14307	1262.86304	221.23036	-298.10718	1160.36816	60.95520	-384.42007	1327.16211	250.42007	-486.07404	1003.03259	-73.53351	-70.72360	1023.37646	298.18542	-323.01282	975.59521	-261.76685	-9.34505	778.60742	202.47647	-439.16885	858.72729	49.88179	-188.88417	840.63788	167.38522	-418.51114	937.49243	358.95636	-527.66284	437.22266	88.05809	-191.89874	434.16891	191.84312	-711.04144	168.33434	279.92368	-239.82892	100.93808	244.62619	
515	5.140	-264.02155	1277.37305	-70.74447	-340.24048	1518.44409	104.81216	-416.82895	1403.28662	3.12777	-191.17268	1365.94543	28.01408	-513.82117	1248.41211	55.57463	-143.14874	1262.01599	220.42412	-297.70639	1160.16577	60.43570	-382.52155	1326.80225	250.74190	-486.13199	1003.10107	-73.59319	-70.37293	1023.13757	298.25626	-323.22540	976.37073	-262.96515	-9.32811	777.74866	202.48698	-439.16757	858.58893	49.81306	-188.58221	840.51343	166.59157	-417.79843	937.85114	358.74942	-527.16681	437.07385	88.63744	-191.77606	433.87604	191.78391	-710.72870	168.16200	280.17584	-239.82065	100.89754	244.61089	
516	5.150	-263.80890	1276.75830	-71.60023	-338.98602	1518.30200	102.85583	-416.21948	1402.79834	2.52127	-191.00154	1364.84692	26.68376	-513.26495	1248.77344	54.98461	-141.11717	1261.88342	217.02106	-297.29782	1159.88562	59.79142	-381.22717	1326.61353	250.11765	-486.14398	1003.36627	-74.38735	-69.16146	1022.74316	296.31668	-323.59140	976.68280	-263.71820	-9.55689	776.65601	202.85855	-439.09341	858.54816	49.80800	-187.81560	840.21545	164.54071	-417.45850	938.04742	357.87018	-526.69611	436.99945	89.49127	-192.01112	433.76434	191.34024	-710.33417	168.31911	280.11572	-239.81335	100.84922	244.59502	
517	5.160	-263.44791	1275.91699	-72.27189	-337.79794	1517.99646	101.62838	-415.56412	1402.30457	1.19859	-188.99458	1363.95642	25.47505	-512.89130	1248.66418	55.14546	-140.77945	1262.52661	215.30968	-296.67694	1159.82410	58.60904	-380.44913	1326.59888	249.28880	-486.24161	1003.50146	-75.08612	-68.57220	1023.00732	295.53052	-323.97372	976.81329	-263.90427	-9.51915	776.06018	202.79779	-439.01697	858.50098	49.80216	-187.81560	840.21545	164.54071	-416.18732	938.05273	358.16885	-526.51477	437.07367	90.38213	-191.90358	433.44327	190.79852	-710.13135	168.24248	280.28033	-239.84871	100.70767	244.60074	
518	5.170	-263.03830	1275.32471	-73.14163	-337.16864	1517.65710	100.22026	-415.01212	1401.99158	0.50036	-189.18384	1363.12048	24.06974	-512.57520	1248.54431	55.27564	-140.44795	1261.27136	215.45235	-296.37961	1159.30371	57.41330	-379.13541	1326.39722	247.94440	-486.37466	1003.53436	-75.95184	-68.05383	1022.44910	294.64374	-324.62997	977.09955	-265.60916	-9.67677	775.31104	203.43207	-438.95413	858.44159	49.79480	-187.47961	840.10797	163.59497	-414.98505	937.88782	357.81839	-526.31476	437.14899	91.06390	-191.81918	433.29510	190.45126	-709.66998	168.70880	279.91211	-239.74335	100.18536	244.82687	
519	5.180	-262.81216	1274.19592	-73.82583	-336.46588	1517.52429	99.26469	-414.54312	1401.76208	-0.73433	-188.82448	1362.92249	23.77936	-512.19641	1248.53613	54.41865	-140.12399	1261.14185	213.97627	-296.08411	1159.22083	56.77245	-377.99463	1326.34973	247.58162	-486.65161	1003.45343	-76.54447	-67.21431	1022.21429	293.93347	-325.14749	977.45789	-266.52722	-10.00022	774.42712	203.78036	-438.73529	858.34424	49.40176	-187.00867	840.53229	161.08893	-413.84628	938.03815	357.51843	-526.00574	437.16190	91.42739	-191.62381	432.97318	190.53688	-709.51300	168.56584	280.03677	-239.78279	100.09095	244.84534	
520	5.190	-262.23352	1274.06812	-75.29675	-335.71234	1517.29968	98.19756	-414.07938	1401.37585	-1.72975	-187.48138	1362.43372	21.92470	-511.80582	1248.57910	53.45775	-139.21233	1260.68823	212.41870	-295.72522	1158.87561	55.76872	-377.23422	1326.84070	246.64078	-487.00839	1003.28070	-77.14784	-66.58172	1022.20264	293.35199	-325.61942	977.92792	-267.58917	-9.77564	773.32086	203.69661	-438.72095	858.26758	49.39227	-186.79832	840.25592	160.92615	-413.40872	937.97803	357.39877	-525.48724	436.69708	91.91418	-191.53513	432.68976	190.36021	-710.02374	167.78606	279.03979	-239.86496	99.98264	244.90051	
521	5.200	-262.54584	1273.84021	-76.22944	-335.06436	1516.86499	97.05967	-413.60217	1401.25244	-2.17642	-187.55176	1362.11340	20.66689	-511.56708	1248.31824	53.12424	-137.83919	1261.10571	211.74399	-295.91861	1158.91858	54.43326	-376.74567	1326.64465	245.83846	-487.25595	1003.27087	-77.31235	-66.08604	1021.80737	291.73441	-326.06177	978.00879	-267.81259	-9.68089	772.32599	203.61067	-438.56720	857.92841	49.42609	-186.52768	840.28253	159.93211	-412.79852	937.86560	357.05688	-524.70142	436.18341	92.78652	-191.57021	432.51126	189.65836	-708.79559	167.21901	279.97919	-239.89694	99.92189	244.91846	
522	5.210	-262.63974	1273.37231	-77.23707	-334.48572	1516.52075	96.33018	-413.22919	1401.06970	-3.52216	-187.26100	1361.91577	19.97185	-511.26401	1248.35767	53.27606	-137.07709	1261.51331	210.58015	-295.47791	1158.82336	53.55698	-375.75351	1326.23132	245.23201	-487.51776	1003.26947	-77.49097	-65.01375	1021.37555	290.88565	-326.67599	977.82715	-268.35666	-9.72698	771.77527	203.97182	-438.73346	857.47064	48.73073	-186.39554	838.93555	160.08510	-412.67160	938.21759	356.98727	-524.36011	435.81305	93.06506	-191.48303	431.71710	189.61232	-708.66315	167.21202	279.75629	-239.97029	99.80561	244.96400	
523	5.220	-262.22375	1272.87097	-78.47250	-333.76913	1516.17126	95.02764	-412.95407	1400.73901	-4.65388	-187.47833	1361.41211	18.25826	-511.10571	1248.15149	52.70353	-135.77997	1260.93127	206.82193	-295.49939	1158.50317	53.20445	-374.46304	1326.26331	244.54279	-487.87769	1003.14203	-77.74826	-64.23203	1021.30243	290.58273	-327.21252	977.72614	-268.76752	-9.68065	771.05316	204.51999	-438.64069	857.11218	48.79652	-185.85316	837.90216	158.70987	-412.02795	938.04718	356.80014	-524.23492	435.70880	93.25138	-191.04454	431.35303	189.38499	-708.51306	167.30969	279.70239	-240.01140	99.71000	244.98375	
524	5.230	-262.32904	1272.39526	-79.23904	-333.46600	1516.03833	94.29327	-412.71017	1400.49805	-4.83271	-186.48016	1360.70068	17.11399	-510.82230	1248.22205	52.23014	-135.58994	1259.87463	205.98965	-295.21411	1157.82190	52.11489	-373.72415	1326.12195	243.83768	-488.28976	1003.16614	-78.05849	-63.91231	1020.57074	290.05682	-327.93747	977.70471	-269.83655	-9.52980	770.50641	204.79890	-438.70306	857.00165	48.78287	-185.86490	838.18768	158.16548	-411.31293	938.75397	356.71692	-524.30334	435.68219	93.78655	-191.01256	430.93719	189.09006	-708.35364	167.45944	279.77930	-239.97617	99.50761	244.43521	
525	5.240	-262.17328	1272.03418	-80.19041	-332.80042	1515.98108	93.41878	-412.48190	1400.23450	-4.77831	-186.33003	1360.35632	16.31919	-510.61221	1248.17993	51.90963	-134.92137	1259.51904	204.94420	-294.97009	1157.53979	51.64146	-373.11172	1325.93616	243.02171	-488.66608	1003.07007	-78.53629	-63.15017	1020.83911	288.99863	-328.63751	977.83374	-270.97824	-9.29168	769.98578	205.40050	-438.89807	856.80298	47.78995	-186.48242	836.93671	157.48207	-410.44971	938.37146	355.92700	-524.44775	435.54019	94.11268	-191.16080	430.61163	188.64381	-709.11890	167.64238	279.45331	-240.04602	99.36819	244.47314	
526	5.250	-262.39386	1271.66321	-80.61492	-332.06000	1515.65015	92.07590	-412.24710	1399.92896	-6.18042	-187.22516	1360.19177	14.79498	-510.38113	1248.23853	51.74039	-134.26755	1258.61853	204.95030	-294.90842	1157.24194	50.67433	-372.66974	1326.06812	241.94151	-489.21039	1002.82794	-78.87587	-62.65880	1020.00159	287.67654	-329.48657	977.23199	-270.65344	-8.90263	769.20264	205.61388	-439.19681	856.90594	46.88936	-186.84059	836.05164	158.05128	-409.84564	938.13464	355.44983	-524.44440	435.41104	94.22388	-190.79317	430.15869	188.74162	-709.05914	167.66985	279.46860	-240.11169	99.27231	244.51549	
